<?xml version="1.0" encoding="UTF-8"?>
<svg width="156px" height="59px" viewBox="0 0 156 59" version="1.1" xmlns="http://www.w3.org/2000/svg" xmlns:xlink="http://www.w3.org/1999/xlink">
    <!-- Generator: Sketch 46.2 (44496) - http://www.bohemiancoding.com/sketch -->
    <title>Rectangle 3</title>
    <desc>Created with Sketch.</desc>
    <defs>
        <path d="M21,11 L27,11 C29.209139,11 31,12.790861 31,15 L17,15 C17,12.790861 18.790861,11 21,11 Z" id="path-1"></path>
        <path d="M48,26.7716366 L48,31.2283634 C48,32.759096 46.209139,34 44,34 L44,24 C46.209139,24 48,25.240904 48,26.7716366 Z" id="path-2"></path>
        <path d="M0,26.7716366 L0,31.2283634 C0,32.759096 1.790861,34 4,34 L4,24 C1.790861,24 0,25.240904 0,26.7716366 Z" id="path-3"></path>
        <path d="M9,15 L39,15 C41.209139,15 43,16.790861 43,19 L43,41 L5,41 L5,19 C5,16.790861 6.790861,15 9,15 Z" id="path-4"></path>
        <path d="M3,43 L45,43 C46.1045695,43 47,43.8954305 47,45 C47,46.1045695 46.1045695,47 45,47 L3,47 C1.8954305,47 1,46.1045695 1,45 C1,43.8954305 1.8954305,43 3,43 Z" id="path-5"></path>
    </defs>
    <g id="Page-1" stroke="none" stroke-width="1" fill="none" fill-rule="evenodd">
        <g id="Joboot_home_ui" transform="translate(-157.000000, -3908.000000)">
            <g id="Group-5" transform="translate(157.000000, 3908.000000)">
                <rect id="Rectangle-3" x="0" y="0" width="156" height="59"></rect>
                <g id="Group-43" transform="translate(6.000000, 6.000000)">
                    <g id="Group-34">
                        <g id="Rectangle-7-Copy-5">
                            <use fill="#00A3F6" fill-rule="evenodd" xlink:href="#path-1"></use>
                            <path stroke="#2C3F48" stroke-width="2" d="M21,10 L27,10 C29.7614237,10 32,12.2385763 32,15 L32,16 L16,16 L16,15 C16,12.2385763 18.2385763,10 21,10 Z"></path>
                        </g>
                        <g id="Rectangle-7-Copy-6">
                            <use fill="#9BAAB0" fill-rule="evenodd" xlink:href="#path-2"></use>
                            <path stroke="#2C3F48" stroke-width="2" d="M49,26.7716366 L49,31.2283634 C49,33.4061728 46.6998035,35 44,35 L43,35 L43,23 L44,23 C46.6998035,23 49,24.5938272 49,26.7716366 Z"></path>
                        </g>
                        <g id="Rectangle-7-Copy-7">
                            <use fill="#9BAAB0" fill-rule="evenodd" xlink:href="#path-3"></use>
                            <path stroke="#2C3F48" stroke-width="2" d="M-1,26.7716366 C-1,24.5938272 1.30019648,23 4,23 L5,23 L5,35 L4,35 C1.30019648,35 -1,33.4061728 -1,31.2283634 L-1,26.7716366 Z"></path>
                        </g>
                        <g id="Rectangle-6-Copy-2">
                            <use fill="#9BAAB0" fill-rule="evenodd" xlink:href="#path-4"></use>
                            <path stroke="#2C3F48" stroke-width="2" d="M9,14 L39,14 C41.7614237,14 44,16.2385763 44,19 L44,42 L4,42 L4,19 C4,16.2385763 6.23857625,14 9,14 Z"></path>
                        </g>
                        <g id="Rectangle-6-Copy-3">
                            <use fill="#00A9FF" fill-rule="evenodd" xlink:href="#path-5"></use>
                            <path stroke="#2C3F48" stroke-width="2" d="M3,42 L45,42 C46.6568542,42 48,43.3431458 48,45 C48,46.6568542 46.6568542,48 45,48 L3,48 C1.34314575,48 0,46.6568542 0,45 C0,43.3431458 1.34314575,42 3,42 Z"></path>
                        </g>
                        <g id="Group-21" transform="translate(25.000000, 18.000000)">
                            <circle id="Oval-3" fill="#2C3F48" cx="6" cy="6" r="6"></circle>
                            <circle id="Oval-3-Copy-4" fill="#FFFFFF" cx="6" cy="6" r="4"></circle>
                            <circle id="Oval-3-Copy-2" fill="#00A9FF" cx="6" cy="6" r="2"></circle>
                        </g>
                        <g id="Group-21-Copy" transform="translate(11.000000, 18.000000)">
                            <circle id="Oval-3" fill="#2C3F48" cx="6" cy="6" r="6"></circle>
                            <circle id="Oval-3-Copy-4" fill="#FFFFFF" cx="6" cy="6" r="4"></circle>
                            <circle id="Oval-3-Copy-2" fill="#00A9FF" cx="6" cy="6" r="2"></circle>
                        </g>
                        <polygon id="Rectangle-7-Copy-8" fill="#2C3F48" points="23 7 26 7 26 10 23 10"></polygon>
                        <circle id="Oval-5-Copy-2" stroke="#2C3F48" stroke-width="2" fill="#00A9FF" cx="24.5" cy="3.5" r="3.5"></circle>
                        <path d="M18.216896,34.6300046 C19.3824501,36.0977062 21.5881996,37 23.9867714,37 C26.4163572,37 28.6368914,36.0960053 29.7894183,34.6138556 C30.1284414,34.1778719 30.0498393,33.5496048 29.6138556,33.2105817 C29.1778719,32.8715586 28.5496048,32.9501607 28.2105817,33.3861444 C27.4717978,34.3362205 25.8413181,35 23.9867714,35 C22.1596065,35 20.5378201,34.3365847 19.783104,33.386223 C19.4396432,32.9537266 18.8106056,32.881549 18.3781092,33.2250098 C17.9456128,33.5684706 17.8734352,34.1975082 18.216896,34.6300046 Z" id="Oval-5" fill="#2C3F48" fill-rule="nonzero"></path>
                    </g>
                    <g id="Group-41" transform="translate(58.000000, 15.000000)">
                        <path d="M11.0890688,0.157469717 C11.3886655,0.262450054 11.6032382,0.436068775 11.7327935,0.67833109 C11.9109321,1.04979997 12,1.55046791 12,2.18034993 L12,11.5558546 C12,13.2516908 11.3846215,14.749657 10.1538462,16.0497981 C8.92307077,17.3499392 7.35223628,18 5.44129555,18 C4.37246429,18 3.42510534,17.7658166 2.59919028,17.2974428 C1.85424729,16.8936723 1.33603385,16.5302843 1.04453441,16.2072678 L0.850202429,16.013459 C0.283397976,15.4158786 0,14.9030977 0,14.4751009 C0,14.0471042 0.283397976,13.5423986 0.850202429,12.960969 C1.41700688,12.3795395 1.91902615,12.0888291 2.3562753,12.0888291 C2.79352445,12.0888291 3.27934955,12.3553136 3.81376518,12.8882907 C4.34818081,13.4212678 4.92712239,13.6877524 5.55060729,13.6877524 C6.17409219,13.6877524 6.68825709,13.4777948 7.09311741,13.0578735 C7.49797773,12.6379521 7.70040486,12.0807572 7.70040486,11.3862719 L7.70040486,2.32570659 C7.70040486,1.35665734 7.86234656,0.734860054 8.18623482,0.460296097 C8.55870632,0.153430498 9.06072559,0 9.69230769,0 C10.3238898,0 10.7894722,0.0524893809 11.0890688,0.157469717 Z" id="Path" fill="#00A9FF"></path>
                        <path d="M20.5,18 C16.9101491,18 14,15.0898509 14,11.5 C14,7.91014913 16.9101491,5 20.5,5 C24.0898509,5 27,7.91014913 27,11.5 C27,15.0898509 24.0898509,18 20.5,18 Z M20.5,14 C21.8807119,14 23,12.8807119 23,11.5 C23,10.1192881 21.8807119,9 20.5,9 C19.1192881,9 18,10.1192881 18,11.5 C18,12.8807119 19.1192881,14 20.5,14 Z" id="Combined-Shape" fill="#00A9FF"></path>
                        <path d="M50.5,18 C46.9101491,18 44,15.0898509 44,11.5 C44,7.91014913 46.9101491,5 50.5,5 C54.0898509,5 57,7.91014913 57,11.5 C57,15.0898509 54.0898509,18 50.5,18 Z M50.5,14 C51.8807119,14 53,12.8807119 53,11.5 C53,10.1192881 51.8807119,9 50.5,9 C49.1192881,9 48,10.1192881 48,11.5 C48,12.8807119 49.1192881,14 50.5,14 Z" id="Combined-Shape" fill="#FFFFFF"></path>
                        <path d="M65.5,18 C61.9101491,18 59,15.0898509 59,11.5 C59,7.91014913 61.9101491,5 65.5,5 C69.0898509,5 72,7.91014913 72,11.5 C72,15.0898509 69.0898509,18 65.5,18 Z M65.5,14 C66.8807119,14 68,12.8807119 68,11.5 C68,10.1192881 66.8807119,9 65.5,9 C64.1192881,9 63,10.1192881 63,11.5 C63,12.8807119 64.1192881,14 65.5,14 Z" id="Combined-Shape" fill="#FFFFFF"></path>
                        <g id="Group-42" transform="translate(29.000000, 0.000000)">
                            <path d="M3.7323687,17.3830414 C3.43872243,17.7943486 2.8594038,18 1.98102467,18 C1.02466323,18 0.440228767,17.7901575 0.227703985,17.3704663 C0.121441594,17.1373045 0.0569261101,16.931348 0.0341555977,16.7525907 C0.0113850854,16.5738333 0,16.3057013 0,15.9481865 L0,2.02849741 C0,1.67098267 0.0113850854,1.40285063 0.0341555977,1.22409326 C0.0569261101,1.04533589 0.121441594,0.847151347 0.227703985,0.629533679 C0.440228767,0.209842461 1.03225321,0 2.00379507,0 C2.96015658,0 3.53700091,0.209842461 3.73434535,0.629533679 C3.85578808,0.862695466 3.92789362,1.06865196 3.95066414,1.24740933 C3.97343465,1.4261667 3.98481973,1.69429873 3.98481973,2.05181347 L3.98481973,5.50451653 C4.75848144,5.17956787 5.60827056,5 6.5,5 C10.0898509,5 13,7.91014913 13,11.5 C13,15.0898509 10.0898509,18 6.5,18 C5.51019934,18 4.57207136,17.7787629 3.7323687,17.3830414 L3.7323687,17.3830414 Z M6.5,14 C7.88071187,14 9,12.8807119 9,11.5 C9,10.1192881 7.88071187,9 6.5,9 C5.11928813,9 4,10.1192881 4,11.5 C4,12.8807119 5.11928813,14 6.5,14 Z" id="Combined-Shape" fill="#00A9FF"></path>
                            <g id="Group-41-Copy" transform="translate(4.000000, 9.000000)"></g>
                        </g>
                        <path d="M83.4797136,9.08910891 L81.6181384,8.98727016 L81.6181384,12.5007072 C81.6181384,12.9589839 81.6992832,13.2899565 81.8615752,13.4936351 C82.0238672,13.6973136 82.3293534,13.7991513 82.778043,13.7991513 C83.2267326,13.7991513 83.5704045,13.8118811 83.8090692,13.8373409 C84.0477339,13.8628007 84.3007147,13.9434222 84.5680191,14.0792079 C85.0071621,14.2998597 85.2267303,14.8684537 85.2267303,15.7850071 C85.2267303,16.8543193 84.9594299,17.5077782 84.424821,17.7454031 C84.1384234,17.8642156 83.8854426,17.9363507 83.6658711,17.9618105 C83.4462996,17.9872703 83.1264937,18 82.7064439,18 C80.7207538,18 79.2124157,17.6011355 78.1813842,16.8033946 C77.1503528,16.0056537 76.6348449,14.6563037 76.6348449,12.7553041 L76.6348449,8.98727016 C76.2720746,9.03818979 75.8806704,9.06364922 75.4606205,9.06364922 C75.0405707,9.06364922 74.6921255,8.91937909 74.4152745,8.63083451 C74.1384234,8.34228993 74,7.8500742 74,7.15417256 C74,6.45827092 74.0477322,5.95332547 74.1431981,5.63932107 C74.238664,5.32531668 74.3723142,5.10042501 74.5441527,4.96463932 C74.8496435,4.74398758 75.2315013,4.63366337 75.6897375,4.63366337 L76.6348449,4.73550212 L76.6348449,2.11315417 C76.6348449,1.72277033 76.6491645,1.43423007 76.6778043,1.24752475 C76.7064441,1.06081943 76.7971353,0.85714396 76.9498807,0.636492221 C77.1980919,0.212161952 77.9331681,0 79.1551313,0 C80.4534671,0 81.2267291,0.313999689 81.4749403,0.942008487 C81.5704062,1.21357986 81.6181384,1.64639024 81.6181384,2.24045262 L81.6181384,4.73550212 C82.4582381,4.66760928 83.0930766,4.63366337 83.522673,4.63366337 C83.9522695,4.63366337 84.2768485,4.64639308 84.49642,4.6718529 C84.7159916,4.69731272 84.9689723,4.77793426 85.2553699,4.91371994 C85.7517925,5.13437168 86,5.7878305 86,6.87411598 C86,7.94342826 85.742246,8.59688707 85.2267303,8.83451202 C84.9403327,8.9533245 84.6873519,9.02545956 84.4677804,9.05091938 C84.2482089,9.07637919 83.9188566,9.08910891 83.4797136,9.08910891 Z" id="Path" fill="#FFFFFF"></path>
                    </g>
                </g>
            </g>
        </g>
    </g>
</svg>